%TF.GenerationSoftware,KiCad,Pcbnew,(5.1.10-1-10_14)*%
%TF.CreationDate,2021-10-31T18:44:30+08:00*%
%TF.ProjectId,esp32solo_devboard,65737033-3273-46f6-9c6f-5f646576626f,rev?*%
%TF.SameCoordinates,Original*%
%TF.FileFunction,Soldermask,Bot*%
%TF.FilePolarity,Negative*%
%FSLAX46Y46*%
G04 Gerber Fmt 4.6, Leading zero omitted, Abs format (unit mm)*
G04 Created by KiCad (PCBNEW (5.1.10-1-10_14)) date 2021-10-31 18:44:30*
%MOMM*%
%LPD*%
G01*
G04 APERTURE LIST*
%ADD10O,1.700000X1.700000*%
%ADD11R,1.700000X1.700000*%
%ADD12C,3.200000*%
%ADD13O,0.999998X1.799996*%
G04 APERTURE END LIST*
D10*
%TO.C,J3*%
X129860000Y-78030000D03*
X127320000Y-78030000D03*
X124780000Y-78030000D03*
X122240000Y-78030000D03*
D11*
X119700000Y-78030000D03*
%TD*%
D10*
%TO.C,J2*%
X147860000Y-85860000D03*
X145320000Y-85860000D03*
X147860000Y-83320000D03*
X145320000Y-83320000D03*
X147860000Y-80780000D03*
X145320000Y-80780000D03*
X147860000Y-78240000D03*
X145320000Y-78240000D03*
X147860000Y-75700000D03*
X145320000Y-75700000D03*
X147860000Y-73160000D03*
X145320000Y-73160000D03*
X147860000Y-70620000D03*
X145320000Y-70620000D03*
X147860000Y-68080000D03*
X145320000Y-68080000D03*
X147860000Y-65540000D03*
X145320000Y-65540000D03*
X147860000Y-63000000D03*
D11*
X145320000Y-63000000D03*
%TD*%
D10*
%TO.C,J1*%
X104680000Y-85860000D03*
X102140000Y-85860000D03*
X104680000Y-83320000D03*
X102140000Y-83320000D03*
X104680000Y-80780000D03*
X102140000Y-80780000D03*
X104680000Y-78240000D03*
X102140000Y-78240000D03*
X104680000Y-75700000D03*
X102140000Y-75700000D03*
X104680000Y-73160000D03*
X102140000Y-73160000D03*
X104680000Y-70620000D03*
X102140000Y-70620000D03*
X104680000Y-68080000D03*
X102140000Y-68080000D03*
X104680000Y-65540000D03*
X102140000Y-65540000D03*
X104680000Y-63000000D03*
D11*
X102140000Y-63000000D03*
%TD*%
D12*
%TO.C,H4*%
X147000000Y-97000000D03*
%TD*%
%TO.C,H3*%
X103000000Y-97000000D03*
%TD*%
%TO.C,H2*%
X147000000Y-53000000D03*
%TD*%
%TO.C,H1*%
X103000000Y-53000000D03*
%TD*%
D13*
%TO.C,P1*%
X129320159Y-97900047D03*
X129320159Y-94099953D03*
X120680095Y-97900047D03*
X120680095Y-94099953D03*
%TD*%
M02*
