M48
; DRILL file {KiCad (5.1.10-1-10_14)} date Sunday, October 31, 2021 at 06:44:32 PM
; FORMAT={-:-/ absolute / inch / decimal}
; #@! TF.CreationDate,2021-10-31T18:44:32+08:00
; #@! TF.GenerationSoftware,Kicad,Pcbnew,(5.1.10-1-10_14)
; #@! TF.FileFunction,Plated,1,4,PTH
FMAT,2
INCH
T1C0.0157
T2C0.0197
T3C0.0394
%
G90
G05
T1
X4.2516Y-2.1598
X4.3189Y-3.6636
X4.3189Y-3.7797
X4.4124Y-3.7797
X4.4512Y-3.8559
X4.4764Y-3.385
X4.5937Y-3.5969
X4.6232Y-3.772
X4.6591Y-3.385
X4.6965Y-2.6118
X4.7008Y-2.0209
X4.7024Y-2.0945
X4.7933Y-3.6146
X4.8807Y-2.3114
X5.0295Y-3.5933
X5.0307Y-3.5346
X5.1524Y-2.0193
X5.1803Y-3.3866
X5.2669Y-3.8685
X5.3366Y-2.7083
X5.3661Y-3.3858
X5.5283Y-2.0922
T3
X4.0213Y-2.4803
X4.0213Y-2.5803
X4.0213Y-2.6803
X4.0213Y-2.7803
X4.0213Y-2.8803
X4.0213Y-2.9803
X4.0213Y-3.0803
X4.0213Y-3.1803
X4.0213Y-3.2803
X4.0213Y-3.3803
X4.1213Y-2.4803
X4.1213Y-2.5803
X4.1213Y-2.6803
X4.1213Y-2.7803
X4.1213Y-2.8803
X4.1213Y-2.9803
X4.1213Y-3.0803
X4.1213Y-3.1803
X4.1213Y-3.2803
X4.1213Y-3.3803
X4.7126Y-3.072
X4.8126Y-3.072
X4.9126Y-3.072
X5.0126Y-3.072
X5.1126Y-3.072
X5.7213Y-2.4803
X5.7213Y-2.5803
X5.7213Y-2.6803
X5.7213Y-2.7803
X5.7213Y-2.8803
X5.7213Y-2.9803
X5.7213Y-3.0803
X5.7213Y-3.1803
X5.7213Y-3.2803
X5.7213Y-3.3803
X5.8213Y-2.4803
X5.8213Y-2.5803
X5.8213Y-2.6803
X5.8213Y-2.7803
X5.8213Y-2.8803
X5.8213Y-2.9803
X5.8213Y-3.0803
X5.8213Y-3.1803
X5.8213Y-3.2803
X5.8213Y-3.3803
T2
G00X4.7512Y-3.689
M15
G01X4.7512Y-3.7205
M16
G05
G00X4.7512Y-3.8386
M15
G01X4.7512Y-3.8701
M16
G05
G00X5.0913Y-3.689
M15
G01X5.0913Y-3.7205
M16
G05
G00X5.0913Y-3.8386
M15
G01X5.0913Y-3.8701
M16
G05
T0
M30
