%TF.GenerationSoftware,KiCad,Pcbnew,(5.1.10-1-10_14)*%
%TF.CreationDate,2021-10-31T18:44:30+08:00*%
%TF.ProjectId,esp32solo_devboard,65737033-3273-46f6-9c6f-5f646576626f,rev?*%
%TF.SameCoordinates,Original*%
%TF.FileFunction,Legend,Top*%
%TF.FilePolarity,Positive*%
%FSLAX46Y46*%
G04 Gerber Fmt 4.6, Leading zero omitted, Abs format (unit mm)*
G04 Created by KiCad (PCBNEW (5.1.10-1-10_14)) date 2021-10-31 18:44:30*
%MOMM*%
%LPD*%
G01*
G04 APERTURE LIST*
%ADD10C,0.150000*%
%ADD11C,0.120000*%
%ADD12C,0.254000*%
%ADD13C,0.152400*%
%ADD14C,0.203200*%
G04 APERTURE END LIST*
D10*
X129948571Y-75298095D02*
X129948571Y-74964761D01*
X130472380Y-74821904D02*
X130472380Y-75298095D01*
X129472380Y-75298095D01*
X129472380Y-74821904D01*
X130472380Y-74393333D02*
X129472380Y-74393333D01*
X130472380Y-73821904D01*
X129472380Y-73821904D01*
X127872380Y-75440000D02*
X126872380Y-75440000D01*
X126872380Y-74773333D02*
X126872380Y-74582857D01*
X126920000Y-74487619D01*
X127015238Y-74392380D01*
X127205714Y-74344761D01*
X127539047Y-74344761D01*
X127729523Y-74392380D01*
X127824761Y-74487619D01*
X127872380Y-74582857D01*
X127872380Y-74773333D01*
X127824761Y-74868571D01*
X127729523Y-74963809D01*
X127539047Y-75011428D01*
X127205714Y-75011428D01*
X127015238Y-74963809D01*
X126920000Y-74868571D01*
X126872380Y-74773333D01*
X126872380Y-73725714D02*
X126872380Y-73630476D01*
X126920000Y-73535238D01*
X126967619Y-73487619D01*
X127062857Y-73440000D01*
X127253333Y-73392380D01*
X127491428Y-73392380D01*
X127681904Y-73440000D01*
X127777142Y-73487619D01*
X127824761Y-73535238D01*
X127872380Y-73630476D01*
X127872380Y-73725714D01*
X127824761Y-73820952D01*
X127777142Y-73868571D01*
X127681904Y-73916190D01*
X127491428Y-73963809D01*
X127253333Y-73963809D01*
X127062857Y-73916190D01*
X126967619Y-73868571D01*
X126920000Y-73820952D01*
X126872380Y-73725714D01*
X124362380Y-75888095D02*
X124362380Y-75316666D01*
X125362380Y-75602380D02*
X124362380Y-75602380D01*
X124362380Y-75078571D02*
X125362380Y-74411904D01*
X124362380Y-74411904D02*
X125362380Y-75078571D01*
X125362380Y-74030952D02*
X124362380Y-74030952D01*
X124362380Y-73792857D01*
X124410000Y-73650000D01*
X124505238Y-73554761D01*
X124600476Y-73507142D01*
X124790952Y-73459523D01*
X124933809Y-73459523D01*
X125124285Y-73507142D01*
X125219523Y-73554761D01*
X125314761Y-73650000D01*
X125362380Y-73792857D01*
X125362380Y-74030952D01*
X124362380Y-72840476D02*
X124362380Y-72745238D01*
X124410000Y-72650000D01*
X124457619Y-72602380D01*
X124552857Y-72554761D01*
X124743333Y-72507142D01*
X124981428Y-72507142D01*
X125171904Y-72554761D01*
X125267142Y-72602380D01*
X125314761Y-72650000D01*
X125362380Y-72745238D01*
X125362380Y-72840476D01*
X125314761Y-72935714D01*
X125267142Y-72983333D01*
X125171904Y-73030952D01*
X124981428Y-73078571D01*
X124743333Y-73078571D01*
X124552857Y-73030952D01*
X124457619Y-72983333D01*
X124410000Y-72935714D01*
X124362380Y-72840476D01*
X122732380Y-75382857D02*
X122256190Y-75716190D01*
X122732380Y-75954285D02*
X121732380Y-75954285D01*
X121732380Y-75573333D01*
X121780000Y-75478095D01*
X121827619Y-75430476D01*
X121922857Y-75382857D01*
X122065714Y-75382857D01*
X122160952Y-75430476D01*
X122208571Y-75478095D01*
X122256190Y-75573333D01*
X122256190Y-75954285D01*
X121732380Y-75049523D02*
X122732380Y-74382857D01*
X121732380Y-74382857D02*
X122732380Y-75049523D01*
X122732380Y-74001904D02*
X121732380Y-74001904D01*
X121732380Y-73763809D01*
X121780000Y-73620952D01*
X121875238Y-73525714D01*
X121970476Y-73478095D01*
X122160952Y-73430476D01*
X122303809Y-73430476D01*
X122494285Y-73478095D01*
X122589523Y-73525714D01*
X122684761Y-73620952D01*
X122732380Y-73763809D01*
X122732380Y-74001904D01*
X121732380Y-72811428D02*
X121732380Y-72716190D01*
X121780000Y-72620952D01*
X121827619Y-72573333D01*
X121922857Y-72525714D01*
X122113333Y-72478095D01*
X122351428Y-72478095D01*
X122541904Y-72525714D01*
X122637142Y-72573333D01*
X122684761Y-72620952D01*
X122732380Y-72716190D01*
X122732380Y-72811428D01*
X122684761Y-72906666D01*
X122637142Y-72954285D01*
X122541904Y-73001904D01*
X122351428Y-73049523D01*
X122113333Y-73049523D01*
X121922857Y-73001904D01*
X121827619Y-72954285D01*
X121780000Y-72906666D01*
X121732380Y-72811428D01*
X119210000Y-75351904D02*
X119162380Y-75447142D01*
X119162380Y-75590000D01*
X119210000Y-75732857D01*
X119305238Y-75828095D01*
X119400476Y-75875714D01*
X119590952Y-75923333D01*
X119733809Y-75923333D01*
X119924285Y-75875714D01*
X120019523Y-75828095D01*
X120114761Y-75732857D01*
X120162380Y-75590000D01*
X120162380Y-75494761D01*
X120114761Y-75351904D01*
X120067142Y-75304285D01*
X119733809Y-75304285D01*
X119733809Y-75494761D01*
X120162380Y-74875714D02*
X119162380Y-74875714D01*
X120162380Y-74304285D01*
X119162380Y-74304285D01*
X120162380Y-73828095D02*
X119162380Y-73828095D01*
X119162380Y-73590000D01*
X119210000Y-73447142D01*
X119305238Y-73351904D01*
X119400476Y-73304285D01*
X119590952Y-73256666D01*
X119733809Y-73256666D01*
X119924285Y-73304285D01*
X120019523Y-73351904D01*
X120114761Y-73447142D01*
X120162380Y-73590000D01*
X120162380Y-73828095D01*
X133220000Y-83742380D02*
X133220000Y-82742380D01*
X133886666Y-82742380D02*
X134077142Y-82742380D01*
X134172380Y-82790000D01*
X134267619Y-82885238D01*
X134315238Y-83075714D01*
X134315238Y-83409047D01*
X134267619Y-83599523D01*
X134172380Y-83694761D01*
X134077142Y-83742380D01*
X133886666Y-83742380D01*
X133791428Y-83694761D01*
X133696190Y-83599523D01*
X133648571Y-83409047D01*
X133648571Y-83075714D01*
X133696190Y-82885238D01*
X133791428Y-82790000D01*
X133886666Y-82742380D01*
X134934285Y-82742380D02*
X135029523Y-82742380D01*
X135124761Y-82790000D01*
X135172380Y-82837619D01*
X135220000Y-82932857D01*
X135267619Y-83123333D01*
X135267619Y-83361428D01*
X135220000Y-83551904D01*
X135172380Y-83647142D01*
X135124761Y-83694761D01*
X135029523Y-83742380D01*
X134934285Y-83742380D01*
X134839047Y-83694761D01*
X134791428Y-83647142D01*
X134743809Y-83551904D01*
X134696190Y-83361428D01*
X134696190Y-83123333D01*
X134743809Y-82932857D01*
X134791428Y-82837619D01*
X134839047Y-82790000D01*
X134934285Y-82742380D01*
X115441904Y-83178571D02*
X115775238Y-83178571D01*
X115918095Y-83702380D02*
X115441904Y-83702380D01*
X115441904Y-82702380D01*
X115918095Y-82702380D01*
X116346666Y-83702380D02*
X116346666Y-82702380D01*
X116918095Y-83702380D01*
X116918095Y-82702380D01*
X138370000Y-55722380D02*
X138370000Y-54722380D01*
X139036666Y-54722380D02*
X139227142Y-54722380D01*
X139322380Y-54770000D01*
X139417619Y-54865238D01*
X139465238Y-55055714D01*
X139465238Y-55389047D01*
X139417619Y-55579523D01*
X139322380Y-55674761D01*
X139227142Y-55722380D01*
X139036666Y-55722380D01*
X138941428Y-55674761D01*
X138846190Y-55579523D01*
X138798571Y-55389047D01*
X138798571Y-55055714D01*
X138846190Y-54865238D01*
X138941428Y-54770000D01*
X139036666Y-54722380D01*
X139846190Y-54817619D02*
X139893809Y-54770000D01*
X139989047Y-54722380D01*
X140227142Y-54722380D01*
X140322380Y-54770000D01*
X140370000Y-54817619D01*
X140417619Y-54912857D01*
X140417619Y-55008095D01*
X140370000Y-55150952D01*
X139798571Y-55722380D01*
X140417619Y-55722380D01*
X109806666Y-55812380D02*
X109806666Y-54812380D01*
X110187619Y-54812380D01*
X110282857Y-54860000D01*
X110330476Y-54907619D01*
X110378095Y-55002857D01*
X110378095Y-55145714D01*
X110330476Y-55240952D01*
X110282857Y-55288571D01*
X110187619Y-55336190D01*
X109806666Y-55336190D01*
X110711428Y-54812380D02*
X110949523Y-55812380D01*
X111140000Y-55098095D01*
X111330476Y-55812380D01*
X111568571Y-54812380D01*
X112520952Y-55812380D02*
X112187619Y-55336190D01*
X111949523Y-55812380D02*
X111949523Y-54812380D01*
X112330476Y-54812380D01*
X112425714Y-54860000D01*
X112473333Y-54907619D01*
X112520952Y-55002857D01*
X112520952Y-55145714D01*
X112473333Y-55240952D01*
X112425714Y-55288571D01*
X112330476Y-55336190D01*
X111949523Y-55336190D01*
X111142857Y-67532380D02*
X111476190Y-68532380D01*
X111809523Y-67532380D01*
X112142857Y-68532380D02*
X112142857Y-67532380D01*
X112714285Y-68532380D01*
X112714285Y-67532380D01*
X110523809Y-76152380D02*
X110523809Y-75152380D01*
X111190476Y-75152380D02*
X111380952Y-75152380D01*
X111476190Y-75200000D01*
X111571428Y-75295238D01*
X111619047Y-75485714D01*
X111619047Y-75819047D01*
X111571428Y-76009523D01*
X111476190Y-76104761D01*
X111380952Y-76152380D01*
X111190476Y-76152380D01*
X111095238Y-76104761D01*
X111000000Y-76009523D01*
X110952380Y-75819047D01*
X110952380Y-75485714D01*
X111000000Y-75295238D01*
X111095238Y-75200000D01*
X111190476Y-75152380D01*
X112000000Y-75247619D02*
X112047619Y-75200000D01*
X112142857Y-75152380D01*
X112380952Y-75152380D01*
X112476190Y-75200000D01*
X112523809Y-75247619D01*
X112571428Y-75342857D01*
X112571428Y-75438095D01*
X112523809Y-75580952D01*
X111952380Y-76152380D01*
X112571428Y-76152380D01*
X113428571Y-75152380D02*
X113238095Y-75152380D01*
X113142857Y-75200000D01*
X113095238Y-75247619D01*
X113000000Y-75390476D01*
X112952380Y-75580952D01*
X112952380Y-75961904D01*
X113000000Y-76057142D01*
X113047619Y-76104761D01*
X113142857Y-76152380D01*
X113333333Y-76152380D01*
X113428571Y-76104761D01*
X113476190Y-76057142D01*
X113523809Y-75961904D01*
X113523809Y-75723809D01*
X113476190Y-75628571D01*
X113428571Y-75580952D01*
X113333333Y-75533333D01*
X113142857Y-75533333D01*
X113047619Y-75580952D01*
X113000000Y-75628571D01*
X112952380Y-75723809D01*
X110523809Y-78692380D02*
X110523809Y-77692380D01*
X111190476Y-77692380D02*
X111380952Y-77692380D01*
X111476190Y-77740000D01*
X111571428Y-77835238D01*
X111619047Y-78025714D01*
X111619047Y-78359047D01*
X111571428Y-78549523D01*
X111476190Y-78644761D01*
X111380952Y-78692380D01*
X111190476Y-78692380D01*
X111095238Y-78644761D01*
X111000000Y-78549523D01*
X110952380Y-78359047D01*
X110952380Y-78025714D01*
X111000000Y-77835238D01*
X111095238Y-77740000D01*
X111190476Y-77692380D01*
X112571428Y-78692380D02*
X112000000Y-78692380D01*
X112285714Y-78692380D02*
X112285714Y-77692380D01*
X112190476Y-77835238D01*
X112095238Y-77930476D01*
X112000000Y-77978095D01*
X113428571Y-78025714D02*
X113428571Y-78692380D01*
X113190476Y-77644761D02*
X112952380Y-78359047D01*
X113571428Y-78359047D01*
X137238095Y-86264761D02*
X137380952Y-86312380D01*
X137619047Y-86312380D01*
X137714285Y-86264761D01*
X137761904Y-86217142D01*
X137809523Y-86121904D01*
X137809523Y-86026666D01*
X137761904Y-85931428D01*
X137714285Y-85883809D01*
X137619047Y-85836190D01*
X137428571Y-85788571D01*
X137333333Y-85740952D01*
X137285714Y-85693333D01*
X137238095Y-85598095D01*
X137238095Y-85502857D01*
X137285714Y-85407619D01*
X137333333Y-85360000D01*
X137428571Y-85312380D01*
X137666666Y-85312380D01*
X137809523Y-85360000D01*
X138238095Y-86312380D02*
X138238095Y-85312380D01*
X138476190Y-85312380D01*
X138619047Y-85360000D01*
X138714285Y-85455238D01*
X138761904Y-85550476D01*
X138809523Y-85740952D01*
X138809523Y-85883809D01*
X138761904Y-86074285D01*
X138714285Y-86169523D01*
X138619047Y-86264761D01*
X138476190Y-86312380D01*
X138238095Y-86312380D01*
X139428571Y-85312380D02*
X139523809Y-85312380D01*
X139619047Y-85360000D01*
X139666666Y-85407619D01*
X139714285Y-85502857D01*
X139761904Y-85693333D01*
X139761904Y-85931428D01*
X139714285Y-86121904D01*
X139666666Y-86217142D01*
X139619047Y-86264761D01*
X139523809Y-86312380D01*
X139428571Y-86312380D01*
X139333333Y-86264761D01*
X139285714Y-86217142D01*
X139238095Y-86121904D01*
X139190476Y-85931428D01*
X139190476Y-85693333D01*
X139238095Y-85502857D01*
X139285714Y-85407619D01*
X139333333Y-85360000D01*
X139428571Y-85312380D01*
X140738095Y-86264761D02*
X140880952Y-86312380D01*
X141119047Y-86312380D01*
X141214285Y-86264761D01*
X141261904Y-86217142D01*
X141309523Y-86121904D01*
X141309523Y-86026666D01*
X141261904Y-85931428D01*
X141214285Y-85883809D01*
X141119047Y-85836190D01*
X140928571Y-85788571D01*
X140833333Y-85740952D01*
X140785714Y-85693333D01*
X140738095Y-85598095D01*
X140738095Y-85502857D01*
X140785714Y-85407619D01*
X140833333Y-85360000D01*
X140928571Y-85312380D01*
X141166666Y-85312380D01*
X141309523Y-85360000D01*
X141738095Y-86312380D02*
X141738095Y-85312380D01*
X141976190Y-85312380D01*
X142119047Y-85360000D01*
X142214285Y-85455238D01*
X142261904Y-85550476D01*
X142309523Y-85740952D01*
X142309523Y-85883809D01*
X142261904Y-86074285D01*
X142214285Y-86169523D01*
X142119047Y-86264761D01*
X141976190Y-86312380D01*
X141738095Y-86312380D01*
X143261904Y-86312380D02*
X142690476Y-86312380D01*
X142976190Y-86312380D02*
X142976190Y-85312380D01*
X142880952Y-85455238D01*
X142785714Y-85550476D01*
X142690476Y-85598095D01*
X141000000Y-83772380D02*
X141000000Y-82772380D01*
X141666666Y-82772380D02*
X141857142Y-82772380D01*
X141952380Y-82820000D01*
X142047619Y-82915238D01*
X142095238Y-83105714D01*
X142095238Y-83439047D01*
X142047619Y-83629523D01*
X141952380Y-83724761D01*
X141857142Y-83772380D01*
X141666666Y-83772380D01*
X141571428Y-83724761D01*
X141476190Y-83629523D01*
X141428571Y-83439047D01*
X141428571Y-83105714D01*
X141476190Y-82915238D01*
X141571428Y-82820000D01*
X141666666Y-82772380D01*
X142476190Y-82867619D02*
X142523809Y-82820000D01*
X142619047Y-82772380D01*
X142857142Y-82772380D01*
X142952380Y-82820000D01*
X143000000Y-82867619D01*
X143047619Y-82962857D01*
X143047619Y-83058095D01*
X143000000Y-83200952D01*
X142428571Y-83772380D01*
X143047619Y-83772380D01*
X136523809Y-83772380D02*
X136523809Y-82772380D01*
X137190476Y-82772380D02*
X137380952Y-82772380D01*
X137476190Y-82820000D01*
X137571428Y-82915238D01*
X137619047Y-83105714D01*
X137619047Y-83439047D01*
X137571428Y-83629523D01*
X137476190Y-83724761D01*
X137380952Y-83772380D01*
X137190476Y-83772380D01*
X137095238Y-83724761D01*
X137000000Y-83629523D01*
X136952380Y-83439047D01*
X136952380Y-83105714D01*
X137000000Y-82915238D01*
X137095238Y-82820000D01*
X137190476Y-82772380D01*
X138571428Y-83772380D02*
X138000000Y-83772380D01*
X138285714Y-83772380D02*
X138285714Y-82772380D01*
X138190476Y-82915238D01*
X138095238Y-83010476D01*
X138000000Y-83058095D01*
X139476190Y-82772380D02*
X139000000Y-82772380D01*
X138952380Y-83248571D01*
X139000000Y-83200952D01*
X139095238Y-83153333D01*
X139333333Y-83153333D01*
X139428571Y-83200952D01*
X139476190Y-83248571D01*
X139523809Y-83343809D01*
X139523809Y-83581904D01*
X139476190Y-83677142D01*
X139428571Y-83724761D01*
X139333333Y-83772380D01*
X139095238Y-83772380D01*
X139000000Y-83724761D01*
X138952380Y-83677142D01*
X140630000Y-81232380D02*
X140630000Y-80232380D01*
X141296666Y-80232380D02*
X141487142Y-80232380D01*
X141582380Y-80280000D01*
X141677619Y-80375238D01*
X141725238Y-80565714D01*
X141725238Y-80899047D01*
X141677619Y-81089523D01*
X141582380Y-81184761D01*
X141487142Y-81232380D01*
X141296666Y-81232380D01*
X141201428Y-81184761D01*
X141106190Y-81089523D01*
X141058571Y-80899047D01*
X141058571Y-80565714D01*
X141106190Y-80375238D01*
X141201428Y-80280000D01*
X141296666Y-80232380D01*
X142582380Y-80565714D02*
X142582380Y-81232380D01*
X142344285Y-80184761D02*
X142106190Y-80899047D01*
X142725238Y-80899047D01*
X136410000Y-81232380D02*
X136410000Y-80232380D01*
X137076666Y-80232380D02*
X137267142Y-80232380D01*
X137362380Y-80280000D01*
X137457619Y-80375238D01*
X137505238Y-80565714D01*
X137505238Y-80899047D01*
X137457619Y-81089523D01*
X137362380Y-81184761D01*
X137267142Y-81232380D01*
X137076666Y-81232380D01*
X136981428Y-81184761D01*
X136886190Y-81089523D01*
X136838571Y-80899047D01*
X136838571Y-80565714D01*
X136886190Y-80375238D01*
X136981428Y-80280000D01*
X137076666Y-80232380D01*
X138124285Y-80232380D02*
X138219523Y-80232380D01*
X138314761Y-80280000D01*
X138362380Y-80327619D01*
X138410000Y-80422857D01*
X138457619Y-80613333D01*
X138457619Y-80851428D01*
X138410000Y-81041904D01*
X138362380Y-81137142D01*
X138314761Y-81184761D01*
X138219523Y-81232380D01*
X138124285Y-81232380D01*
X138029047Y-81184761D01*
X137981428Y-81137142D01*
X137933809Y-81041904D01*
X137886190Y-80851428D01*
X137886190Y-80613333D01*
X137933809Y-80422857D01*
X137981428Y-80327619D01*
X138029047Y-80280000D01*
X138124285Y-80232380D01*
X135943809Y-78692380D02*
X135943809Y-77692380D01*
X136610476Y-77692380D02*
X136800952Y-77692380D01*
X136896190Y-77740000D01*
X136991428Y-77835238D01*
X137039047Y-78025714D01*
X137039047Y-78359047D01*
X136991428Y-78549523D01*
X136896190Y-78644761D01*
X136800952Y-78692380D01*
X136610476Y-78692380D01*
X136515238Y-78644761D01*
X136420000Y-78549523D01*
X136372380Y-78359047D01*
X136372380Y-78025714D01*
X136420000Y-77835238D01*
X136515238Y-77740000D01*
X136610476Y-77692380D01*
X137991428Y-78692380D02*
X137420000Y-78692380D01*
X137705714Y-78692380D02*
X137705714Y-77692380D01*
X137610476Y-77835238D01*
X137515238Y-77930476D01*
X137420000Y-77978095D01*
X138848571Y-77692380D02*
X138658095Y-77692380D01*
X138562857Y-77740000D01*
X138515238Y-77787619D01*
X138420000Y-77930476D01*
X138372380Y-78120952D01*
X138372380Y-78501904D01*
X138420000Y-78597142D01*
X138467619Y-78644761D01*
X138562857Y-78692380D01*
X138753333Y-78692380D01*
X138848571Y-78644761D01*
X138896190Y-78597142D01*
X138943809Y-78501904D01*
X138943809Y-78263809D01*
X138896190Y-78168571D01*
X138848571Y-78120952D01*
X138753333Y-78073333D01*
X138562857Y-78073333D01*
X138467619Y-78120952D01*
X138420000Y-78168571D01*
X138372380Y-78263809D01*
X139973809Y-78692380D02*
X139973809Y-77692380D01*
X140640476Y-77692380D02*
X140830952Y-77692380D01*
X140926190Y-77740000D01*
X141021428Y-77835238D01*
X141069047Y-78025714D01*
X141069047Y-78359047D01*
X141021428Y-78549523D01*
X140926190Y-78644761D01*
X140830952Y-78692380D01*
X140640476Y-78692380D01*
X140545238Y-78644761D01*
X140450000Y-78549523D01*
X140402380Y-78359047D01*
X140402380Y-78025714D01*
X140450000Y-77835238D01*
X140545238Y-77740000D01*
X140640476Y-77692380D01*
X142021428Y-78692380D02*
X141450000Y-78692380D01*
X141735714Y-78692380D02*
X141735714Y-77692380D01*
X141640476Y-77835238D01*
X141545238Y-77930476D01*
X141450000Y-77978095D01*
X142354761Y-77692380D02*
X143021428Y-77692380D01*
X142592857Y-78692380D01*
X136490000Y-76152380D02*
X136490000Y-75152380D01*
X137156666Y-75152380D02*
X137347142Y-75152380D01*
X137442380Y-75200000D01*
X137537619Y-75295238D01*
X137585238Y-75485714D01*
X137585238Y-75819047D01*
X137537619Y-76009523D01*
X137442380Y-76104761D01*
X137347142Y-76152380D01*
X137156666Y-76152380D01*
X137061428Y-76104761D01*
X136966190Y-76009523D01*
X136918571Y-75819047D01*
X136918571Y-75485714D01*
X136966190Y-75295238D01*
X137061428Y-75200000D01*
X137156666Y-75152380D01*
X138490000Y-75152380D02*
X138013809Y-75152380D01*
X137966190Y-75628571D01*
X138013809Y-75580952D01*
X138109047Y-75533333D01*
X138347142Y-75533333D01*
X138442380Y-75580952D01*
X138490000Y-75628571D01*
X138537619Y-75723809D01*
X138537619Y-75961904D01*
X138490000Y-76057142D01*
X138442380Y-76104761D01*
X138347142Y-76152380D01*
X138109047Y-76152380D01*
X138013809Y-76104761D01*
X137966190Y-76057142D01*
X140043809Y-76152380D02*
X140043809Y-75152380D01*
X140710476Y-75152380D02*
X140900952Y-75152380D01*
X140996190Y-75200000D01*
X141091428Y-75295238D01*
X141139047Y-75485714D01*
X141139047Y-75819047D01*
X141091428Y-76009523D01*
X140996190Y-76104761D01*
X140900952Y-76152380D01*
X140710476Y-76152380D01*
X140615238Y-76104761D01*
X140520000Y-76009523D01*
X140472380Y-75819047D01*
X140472380Y-75485714D01*
X140520000Y-75295238D01*
X140615238Y-75200000D01*
X140710476Y-75152380D01*
X142091428Y-76152380D02*
X141520000Y-76152380D01*
X141805714Y-76152380D02*
X141805714Y-75152380D01*
X141710476Y-75295238D01*
X141615238Y-75390476D01*
X141520000Y-75438095D01*
X142662857Y-75580952D02*
X142567619Y-75533333D01*
X142520000Y-75485714D01*
X142472380Y-75390476D01*
X142472380Y-75342857D01*
X142520000Y-75247619D01*
X142567619Y-75200000D01*
X142662857Y-75152380D01*
X142853333Y-75152380D01*
X142948571Y-75200000D01*
X142996190Y-75247619D01*
X143043809Y-75342857D01*
X143043809Y-75390476D01*
X142996190Y-75485714D01*
X142948571Y-75533333D01*
X142853333Y-75580952D01*
X142662857Y-75580952D01*
X142567619Y-75628571D01*
X142520000Y-75676190D01*
X142472380Y-75771428D01*
X142472380Y-75961904D01*
X142520000Y-76057142D01*
X142567619Y-76104761D01*
X142662857Y-76152380D01*
X142853333Y-76152380D01*
X142948571Y-76104761D01*
X142996190Y-76057142D01*
X143043809Y-75961904D01*
X143043809Y-75771428D01*
X142996190Y-75676190D01*
X142948571Y-75628571D01*
X142853333Y-75580952D01*
X140851904Y-73088571D02*
X141185238Y-73088571D01*
X141328095Y-73612380D02*
X140851904Y-73612380D01*
X140851904Y-72612380D01*
X141328095Y-72612380D01*
X141756666Y-73612380D02*
X141756666Y-72612380D01*
X142328095Y-73612380D01*
X142328095Y-72612380D01*
X136083809Y-73612380D02*
X136083809Y-72612380D01*
X136750476Y-72612380D02*
X136940952Y-72612380D01*
X137036190Y-72660000D01*
X137131428Y-72755238D01*
X137179047Y-72945714D01*
X137179047Y-73279047D01*
X137131428Y-73469523D01*
X137036190Y-73564761D01*
X136940952Y-73612380D01*
X136750476Y-73612380D01*
X136655238Y-73564761D01*
X136560000Y-73469523D01*
X136512380Y-73279047D01*
X136512380Y-72945714D01*
X136560000Y-72755238D01*
X136655238Y-72660000D01*
X136750476Y-72612380D01*
X138131428Y-73612380D02*
X137560000Y-73612380D01*
X137845714Y-73612380D02*
X137845714Y-72612380D01*
X137750476Y-72755238D01*
X137655238Y-72850476D01*
X137560000Y-72898095D01*
X138607619Y-73612380D02*
X138798095Y-73612380D01*
X138893333Y-73564761D01*
X138940952Y-73517142D01*
X139036190Y-73374285D01*
X139083809Y-73183809D01*
X139083809Y-72802857D01*
X139036190Y-72707619D01*
X138988571Y-72660000D01*
X138893333Y-72612380D01*
X138702857Y-72612380D01*
X138607619Y-72660000D01*
X138560000Y-72707619D01*
X138512380Y-72802857D01*
X138512380Y-73040952D01*
X138560000Y-73136190D01*
X138607619Y-73183809D01*
X138702857Y-73231428D01*
X138893333Y-73231428D01*
X138988571Y-73183809D01*
X139036190Y-73136190D01*
X139083809Y-73040952D01*
X135903809Y-71072380D02*
X135903809Y-70072380D01*
X136570476Y-70072380D02*
X136760952Y-70072380D01*
X136856190Y-70120000D01*
X136951428Y-70215238D01*
X136999047Y-70405714D01*
X136999047Y-70739047D01*
X136951428Y-70929523D01*
X136856190Y-71024761D01*
X136760952Y-71072380D01*
X136570476Y-71072380D01*
X136475238Y-71024761D01*
X136380000Y-70929523D01*
X136332380Y-70739047D01*
X136332380Y-70405714D01*
X136380000Y-70215238D01*
X136475238Y-70120000D01*
X136570476Y-70072380D01*
X137380000Y-70167619D02*
X137427619Y-70120000D01*
X137522857Y-70072380D01*
X137760952Y-70072380D01*
X137856190Y-70120000D01*
X137903809Y-70167619D01*
X137951428Y-70262857D01*
X137951428Y-70358095D01*
X137903809Y-70500952D01*
X137332380Y-71072380D01*
X137951428Y-71072380D01*
X138903809Y-71072380D02*
X138332380Y-71072380D01*
X138618095Y-71072380D02*
X138618095Y-70072380D01*
X138522857Y-70215238D01*
X138427619Y-70310476D01*
X138332380Y-70358095D01*
X140277142Y-71072380D02*
X139943809Y-70596190D01*
X139705714Y-71072380D02*
X139705714Y-70072380D01*
X140086666Y-70072380D01*
X140181904Y-70120000D01*
X140229523Y-70167619D01*
X140277142Y-70262857D01*
X140277142Y-70405714D01*
X140229523Y-70500952D01*
X140181904Y-70548571D01*
X140086666Y-70596190D01*
X139705714Y-70596190D01*
X140610476Y-70072380D02*
X141277142Y-71072380D01*
X141277142Y-70072380D02*
X140610476Y-71072380D01*
X141658095Y-71072380D02*
X141658095Y-70072380D01*
X141896190Y-70072380D01*
X142039047Y-70120000D01*
X142134285Y-70215238D01*
X142181904Y-70310476D01*
X142229523Y-70500952D01*
X142229523Y-70643809D01*
X142181904Y-70834285D01*
X142134285Y-70929523D01*
X142039047Y-71024761D01*
X141896190Y-71072380D01*
X141658095Y-71072380D01*
X142848571Y-70072380D02*
X142943809Y-70072380D01*
X143039047Y-70120000D01*
X143086666Y-70167619D01*
X143134285Y-70262857D01*
X143181904Y-70453333D01*
X143181904Y-70691428D01*
X143134285Y-70881904D01*
X143086666Y-70977142D01*
X143039047Y-71024761D01*
X142943809Y-71072380D01*
X142848571Y-71072380D01*
X142753333Y-71024761D01*
X142705714Y-70977142D01*
X142658095Y-70881904D01*
X142610476Y-70691428D01*
X142610476Y-70453333D01*
X142658095Y-70262857D01*
X142705714Y-70167619D01*
X142753333Y-70120000D01*
X142848571Y-70072380D01*
X136301904Y-67152380D02*
X136873333Y-67152380D01*
X136587619Y-68152380D02*
X136587619Y-67152380D01*
X137111428Y-67152380D02*
X137778095Y-68152380D01*
X137778095Y-67152380D02*
X137111428Y-68152380D01*
X138159047Y-68152380D02*
X138159047Y-67152380D01*
X138397142Y-67152380D01*
X138540000Y-67200000D01*
X138635238Y-67295238D01*
X138682857Y-67390476D01*
X138730476Y-67580952D01*
X138730476Y-67723809D01*
X138682857Y-67914285D01*
X138635238Y-68009523D01*
X138540000Y-68104761D01*
X138397142Y-68152380D01*
X138159047Y-68152380D01*
X139349523Y-67152380D02*
X139444761Y-67152380D01*
X139540000Y-67200000D01*
X139587619Y-67247619D01*
X139635238Y-67342857D01*
X139682857Y-67533333D01*
X139682857Y-67771428D01*
X139635238Y-67961904D01*
X139587619Y-68057142D01*
X139540000Y-68104761D01*
X139444761Y-68152380D01*
X139349523Y-68152380D01*
X139254285Y-68104761D01*
X139206666Y-68057142D01*
X139159047Y-67961904D01*
X139111428Y-67771428D01*
X139111428Y-67533333D01*
X139159047Y-67342857D01*
X139206666Y-67247619D01*
X139254285Y-67200000D01*
X139349523Y-67152380D01*
X140363809Y-68512380D02*
X140363809Y-67512380D01*
X141030476Y-67512380D02*
X141220952Y-67512380D01*
X141316190Y-67560000D01*
X141411428Y-67655238D01*
X141459047Y-67845714D01*
X141459047Y-68179047D01*
X141411428Y-68369523D01*
X141316190Y-68464761D01*
X141220952Y-68512380D01*
X141030476Y-68512380D01*
X140935238Y-68464761D01*
X140840000Y-68369523D01*
X140792380Y-68179047D01*
X140792380Y-67845714D01*
X140840000Y-67655238D01*
X140935238Y-67560000D01*
X141030476Y-67512380D01*
X141840000Y-67607619D02*
X141887619Y-67560000D01*
X141982857Y-67512380D01*
X142220952Y-67512380D01*
X142316190Y-67560000D01*
X142363809Y-67607619D01*
X142411428Y-67702857D01*
X142411428Y-67798095D01*
X142363809Y-67940952D01*
X141792380Y-68512380D01*
X142411428Y-68512380D01*
X142792380Y-67607619D02*
X142840000Y-67560000D01*
X142935238Y-67512380D01*
X143173333Y-67512380D01*
X143268571Y-67560000D01*
X143316190Y-67607619D01*
X143363809Y-67702857D01*
X143363809Y-67798095D01*
X143316190Y-67940952D01*
X142744761Y-68512380D01*
X143363809Y-68512380D01*
X136433809Y-65992380D02*
X136433809Y-64992380D01*
X137100476Y-64992380D02*
X137290952Y-64992380D01*
X137386190Y-65040000D01*
X137481428Y-65135238D01*
X137529047Y-65325714D01*
X137529047Y-65659047D01*
X137481428Y-65849523D01*
X137386190Y-65944761D01*
X137290952Y-65992380D01*
X137100476Y-65992380D01*
X137005238Y-65944761D01*
X136910000Y-65849523D01*
X136862380Y-65659047D01*
X136862380Y-65325714D01*
X136910000Y-65135238D01*
X137005238Y-65040000D01*
X137100476Y-64992380D01*
X137910000Y-65087619D02*
X137957619Y-65040000D01*
X138052857Y-64992380D01*
X138290952Y-64992380D01*
X138386190Y-65040000D01*
X138433809Y-65087619D01*
X138481428Y-65182857D01*
X138481428Y-65278095D01*
X138433809Y-65420952D01*
X137862380Y-65992380D01*
X138481428Y-65992380D01*
X138814761Y-64992380D02*
X139433809Y-64992380D01*
X139100476Y-65373333D01*
X139243333Y-65373333D01*
X139338571Y-65420952D01*
X139386190Y-65468571D01*
X139433809Y-65563809D01*
X139433809Y-65801904D01*
X139386190Y-65897142D01*
X139338571Y-65944761D01*
X139243333Y-65992380D01*
X138957619Y-65992380D01*
X138862380Y-65944761D01*
X138814761Y-65897142D01*
X141048095Y-65040000D02*
X140952857Y-64992380D01*
X140810000Y-64992380D01*
X140667142Y-65040000D01*
X140571904Y-65135238D01*
X140524285Y-65230476D01*
X140476666Y-65420952D01*
X140476666Y-65563809D01*
X140524285Y-65754285D01*
X140571904Y-65849523D01*
X140667142Y-65944761D01*
X140810000Y-65992380D01*
X140905238Y-65992380D01*
X141048095Y-65944761D01*
X141095714Y-65897142D01*
X141095714Y-65563809D01*
X140905238Y-65563809D01*
X141524285Y-65992380D02*
X141524285Y-64992380D01*
X142095714Y-65992380D01*
X142095714Y-64992380D01*
X142571904Y-65992380D02*
X142571904Y-64992380D01*
X142810000Y-64992380D01*
X142952857Y-65040000D01*
X143048095Y-65135238D01*
X143095714Y-65230476D01*
X143143333Y-65420952D01*
X143143333Y-65563809D01*
X143095714Y-65754285D01*
X143048095Y-65849523D01*
X142952857Y-65944761D01*
X142810000Y-65992380D01*
X142571904Y-65992380D01*
X137428095Y-62500000D02*
X137332857Y-62452380D01*
X137190000Y-62452380D01*
X137047142Y-62500000D01*
X136951904Y-62595238D01*
X136904285Y-62690476D01*
X136856666Y-62880952D01*
X136856666Y-63023809D01*
X136904285Y-63214285D01*
X136951904Y-63309523D01*
X137047142Y-63404761D01*
X137190000Y-63452380D01*
X137285238Y-63452380D01*
X137428095Y-63404761D01*
X137475714Y-63357142D01*
X137475714Y-63023809D01*
X137285238Y-63023809D01*
X137904285Y-63452380D02*
X137904285Y-62452380D01*
X138475714Y-63452380D01*
X138475714Y-62452380D01*
X138951904Y-63452380D02*
X138951904Y-62452380D01*
X139190000Y-62452380D01*
X139332857Y-62500000D01*
X139428095Y-62595238D01*
X139475714Y-62690476D01*
X139523333Y-62880952D01*
X139523333Y-63023809D01*
X139475714Y-63214285D01*
X139428095Y-63309523D01*
X139332857Y-63404761D01*
X139190000Y-63452380D01*
X138951904Y-63452380D01*
X141008095Y-62500000D02*
X140912857Y-62452380D01*
X140770000Y-62452380D01*
X140627142Y-62500000D01*
X140531904Y-62595238D01*
X140484285Y-62690476D01*
X140436666Y-62880952D01*
X140436666Y-63023809D01*
X140484285Y-63214285D01*
X140531904Y-63309523D01*
X140627142Y-63404761D01*
X140770000Y-63452380D01*
X140865238Y-63452380D01*
X141008095Y-63404761D01*
X141055714Y-63357142D01*
X141055714Y-63023809D01*
X140865238Y-63023809D01*
X141484285Y-63452380D02*
X141484285Y-62452380D01*
X142055714Y-63452380D01*
X142055714Y-62452380D01*
X142531904Y-63452380D02*
X142531904Y-62452380D01*
X142770000Y-62452380D01*
X142912857Y-62500000D01*
X143008095Y-62595238D01*
X143055714Y-62690476D01*
X143103333Y-62880952D01*
X143103333Y-63023809D01*
X143055714Y-63214285D01*
X143008095Y-63309523D01*
X142912857Y-63404761D01*
X142770000Y-63452380D01*
X142531904Y-63452380D01*
X110904761Y-86217142D02*
X110857142Y-86264761D01*
X110714285Y-86312380D01*
X110619047Y-86312380D01*
X110476190Y-86264761D01*
X110380952Y-86169523D01*
X110333333Y-86074285D01*
X110285714Y-85883809D01*
X110285714Y-85740952D01*
X110333333Y-85550476D01*
X110380952Y-85455238D01*
X110476190Y-85360000D01*
X110619047Y-85312380D01*
X110714285Y-85312380D01*
X110857142Y-85360000D01*
X110904761Y-85407619D01*
X111809523Y-86312380D02*
X111333333Y-86312380D01*
X111333333Y-85312380D01*
X112142857Y-86312380D02*
X112142857Y-85312380D01*
X112714285Y-86312380D02*
X112285714Y-85740952D01*
X112714285Y-85312380D02*
X112142857Y-85883809D01*
X107238095Y-86217142D02*
X107190476Y-86264761D01*
X107047619Y-86312380D01*
X106952380Y-86312380D01*
X106809523Y-86264761D01*
X106714285Y-86169523D01*
X106666666Y-86074285D01*
X106619047Y-85883809D01*
X106619047Y-85740952D01*
X106666666Y-85550476D01*
X106714285Y-85455238D01*
X106809523Y-85360000D01*
X106952380Y-85312380D01*
X107047619Y-85312380D01*
X107190476Y-85360000D01*
X107238095Y-85407619D01*
X107666666Y-86312380D02*
X107666666Y-85312380D01*
X108000000Y-86026666D01*
X108333333Y-85312380D01*
X108333333Y-86312380D01*
X108809523Y-86312380D02*
X108809523Y-85312380D01*
X109047619Y-85312380D01*
X109190476Y-85360000D01*
X109285714Y-85455238D01*
X109333333Y-85550476D01*
X109380952Y-85740952D01*
X109380952Y-85883809D01*
X109333333Y-86074285D01*
X109285714Y-86169523D01*
X109190476Y-86264761D01*
X109047619Y-86312380D01*
X108809523Y-86312380D01*
X110238095Y-83724761D02*
X110380952Y-83772380D01*
X110619047Y-83772380D01*
X110714285Y-83724761D01*
X110761904Y-83677142D01*
X110809523Y-83581904D01*
X110809523Y-83486666D01*
X110761904Y-83391428D01*
X110714285Y-83343809D01*
X110619047Y-83296190D01*
X110428571Y-83248571D01*
X110333333Y-83200952D01*
X110285714Y-83153333D01*
X110238095Y-83058095D01*
X110238095Y-82962857D01*
X110285714Y-82867619D01*
X110333333Y-82820000D01*
X110428571Y-82772380D01*
X110666666Y-82772380D01*
X110809523Y-82820000D01*
X111238095Y-83772380D02*
X111238095Y-82772380D01*
X111476190Y-82772380D01*
X111619047Y-82820000D01*
X111714285Y-82915238D01*
X111761904Y-83010476D01*
X111809523Y-83200952D01*
X111809523Y-83343809D01*
X111761904Y-83534285D01*
X111714285Y-83629523D01*
X111619047Y-83724761D01*
X111476190Y-83772380D01*
X111238095Y-83772380D01*
X112142857Y-82772380D02*
X112761904Y-82772380D01*
X112428571Y-83153333D01*
X112571428Y-83153333D01*
X112666666Y-83200952D01*
X112714285Y-83248571D01*
X112761904Y-83343809D01*
X112761904Y-83581904D01*
X112714285Y-83677142D01*
X112666666Y-83724761D01*
X112571428Y-83772380D01*
X112285714Y-83772380D01*
X112190476Y-83724761D01*
X112142857Y-83677142D01*
X107028095Y-83724761D02*
X107170952Y-83772380D01*
X107409047Y-83772380D01*
X107504285Y-83724761D01*
X107551904Y-83677142D01*
X107599523Y-83581904D01*
X107599523Y-83486666D01*
X107551904Y-83391428D01*
X107504285Y-83343809D01*
X107409047Y-83296190D01*
X107218571Y-83248571D01*
X107123333Y-83200952D01*
X107075714Y-83153333D01*
X107028095Y-83058095D01*
X107028095Y-82962857D01*
X107075714Y-82867619D01*
X107123333Y-82820000D01*
X107218571Y-82772380D01*
X107456666Y-82772380D01*
X107599523Y-82820000D01*
X108028095Y-83772380D02*
X108028095Y-82772380D01*
X108266190Y-82772380D01*
X108409047Y-82820000D01*
X108504285Y-82915238D01*
X108551904Y-83010476D01*
X108599523Y-83200952D01*
X108599523Y-83343809D01*
X108551904Y-83534285D01*
X108504285Y-83629523D01*
X108409047Y-83724761D01*
X108266190Y-83772380D01*
X108028095Y-83772380D01*
X108980476Y-82867619D02*
X109028095Y-82820000D01*
X109123333Y-82772380D01*
X109361428Y-82772380D01*
X109456666Y-82820000D01*
X109504285Y-82867619D01*
X109551904Y-82962857D01*
X109551904Y-83058095D01*
X109504285Y-83200952D01*
X108932857Y-83772380D01*
X109551904Y-83772380D01*
X110523809Y-81232380D02*
X110523809Y-80232380D01*
X111190476Y-80232380D02*
X111380952Y-80232380D01*
X111476190Y-80280000D01*
X111571428Y-80375238D01*
X111619047Y-80565714D01*
X111619047Y-80899047D01*
X111571428Y-81089523D01*
X111476190Y-81184761D01*
X111380952Y-81232380D01*
X111190476Y-81232380D01*
X111095238Y-81184761D01*
X111000000Y-81089523D01*
X110952380Y-80899047D01*
X110952380Y-80565714D01*
X111000000Y-80375238D01*
X111095238Y-80280000D01*
X111190476Y-80232380D01*
X112571428Y-81232380D02*
X112000000Y-81232380D01*
X112285714Y-81232380D02*
X112285714Y-80232380D01*
X112190476Y-80375238D01*
X112095238Y-80470476D01*
X112000000Y-80518095D01*
X112904761Y-80232380D02*
X113523809Y-80232380D01*
X113190476Y-80613333D01*
X113333333Y-80613333D01*
X113428571Y-80660952D01*
X113476190Y-80708571D01*
X113523809Y-80803809D01*
X113523809Y-81041904D01*
X113476190Y-81137142D01*
X113428571Y-81184761D01*
X113333333Y-81232380D01*
X113047619Y-81232380D01*
X112952380Y-81184761D01*
X112904761Y-81137142D01*
X106753809Y-81232380D02*
X106753809Y-80232380D01*
X107420476Y-80232380D02*
X107610952Y-80232380D01*
X107706190Y-80280000D01*
X107801428Y-80375238D01*
X107849047Y-80565714D01*
X107849047Y-80899047D01*
X107801428Y-81089523D01*
X107706190Y-81184761D01*
X107610952Y-81232380D01*
X107420476Y-81232380D01*
X107325238Y-81184761D01*
X107230000Y-81089523D01*
X107182380Y-80899047D01*
X107182380Y-80565714D01*
X107230000Y-80375238D01*
X107325238Y-80280000D01*
X107420476Y-80232380D01*
X108801428Y-81232380D02*
X108230000Y-81232380D01*
X108515714Y-81232380D02*
X108515714Y-80232380D01*
X108420476Y-80375238D01*
X108325238Y-80470476D01*
X108230000Y-80518095D01*
X109182380Y-80327619D02*
X109230000Y-80280000D01*
X109325238Y-80232380D01*
X109563333Y-80232380D01*
X109658571Y-80280000D01*
X109706190Y-80327619D01*
X109753809Y-80422857D01*
X109753809Y-80518095D01*
X109706190Y-80660952D01*
X109134761Y-81232380D01*
X109753809Y-81232380D01*
X106633809Y-78692380D02*
X106633809Y-77692380D01*
X107300476Y-77692380D02*
X107490952Y-77692380D01*
X107586190Y-77740000D01*
X107681428Y-77835238D01*
X107729047Y-78025714D01*
X107729047Y-78359047D01*
X107681428Y-78549523D01*
X107586190Y-78644761D01*
X107490952Y-78692380D01*
X107300476Y-78692380D01*
X107205238Y-78644761D01*
X107110000Y-78549523D01*
X107062380Y-78359047D01*
X107062380Y-78025714D01*
X107110000Y-77835238D01*
X107205238Y-77740000D01*
X107300476Y-77692380D01*
X108110000Y-77787619D02*
X108157619Y-77740000D01*
X108252857Y-77692380D01*
X108490952Y-77692380D01*
X108586190Y-77740000D01*
X108633809Y-77787619D01*
X108681428Y-77882857D01*
X108681428Y-77978095D01*
X108633809Y-78120952D01*
X108062380Y-78692380D01*
X108681428Y-78692380D01*
X109014761Y-77692380D02*
X109681428Y-77692380D01*
X109252857Y-78692380D01*
X106653809Y-76152380D02*
X106653809Y-75152380D01*
X107320476Y-75152380D02*
X107510952Y-75152380D01*
X107606190Y-75200000D01*
X107701428Y-75295238D01*
X107749047Y-75485714D01*
X107749047Y-75819047D01*
X107701428Y-76009523D01*
X107606190Y-76104761D01*
X107510952Y-76152380D01*
X107320476Y-76152380D01*
X107225238Y-76104761D01*
X107130000Y-76009523D01*
X107082380Y-75819047D01*
X107082380Y-75485714D01*
X107130000Y-75295238D01*
X107225238Y-75200000D01*
X107320476Y-75152380D01*
X108130000Y-75247619D02*
X108177619Y-75200000D01*
X108272857Y-75152380D01*
X108510952Y-75152380D01*
X108606190Y-75200000D01*
X108653809Y-75247619D01*
X108701428Y-75342857D01*
X108701428Y-75438095D01*
X108653809Y-75580952D01*
X108082380Y-76152380D01*
X108701428Y-76152380D01*
X109606190Y-75152380D02*
X109130000Y-75152380D01*
X109082380Y-75628571D01*
X109130000Y-75580952D01*
X109225238Y-75533333D01*
X109463333Y-75533333D01*
X109558571Y-75580952D01*
X109606190Y-75628571D01*
X109653809Y-75723809D01*
X109653809Y-75961904D01*
X109606190Y-76057142D01*
X109558571Y-76104761D01*
X109463333Y-76152380D01*
X109225238Y-76152380D01*
X109130000Y-76104761D01*
X109082380Y-76057142D01*
X110523809Y-73612380D02*
X110523809Y-72612380D01*
X111190476Y-72612380D02*
X111380952Y-72612380D01*
X111476190Y-72660000D01*
X111571428Y-72755238D01*
X111619047Y-72945714D01*
X111619047Y-73279047D01*
X111571428Y-73469523D01*
X111476190Y-73564761D01*
X111380952Y-73612380D01*
X111190476Y-73612380D01*
X111095238Y-73564761D01*
X111000000Y-73469523D01*
X110952380Y-73279047D01*
X110952380Y-72945714D01*
X111000000Y-72755238D01*
X111095238Y-72660000D01*
X111190476Y-72612380D01*
X111952380Y-72612380D02*
X112571428Y-72612380D01*
X112238095Y-72993333D01*
X112380952Y-72993333D01*
X112476190Y-73040952D01*
X112523809Y-73088571D01*
X112571428Y-73183809D01*
X112571428Y-73421904D01*
X112523809Y-73517142D01*
X112476190Y-73564761D01*
X112380952Y-73612380D01*
X112095238Y-73612380D01*
X112000000Y-73564761D01*
X111952380Y-73517142D01*
X112904761Y-72612380D02*
X113523809Y-72612380D01*
X113190476Y-72993333D01*
X113333333Y-72993333D01*
X113428571Y-73040952D01*
X113476190Y-73088571D01*
X113523809Y-73183809D01*
X113523809Y-73421904D01*
X113476190Y-73517142D01*
X113428571Y-73564761D01*
X113333333Y-73612380D01*
X113047619Y-73612380D01*
X112952380Y-73564761D01*
X112904761Y-73517142D01*
X106663809Y-73612380D02*
X106663809Y-72612380D01*
X107330476Y-72612380D02*
X107520952Y-72612380D01*
X107616190Y-72660000D01*
X107711428Y-72755238D01*
X107759047Y-72945714D01*
X107759047Y-73279047D01*
X107711428Y-73469523D01*
X107616190Y-73564761D01*
X107520952Y-73612380D01*
X107330476Y-73612380D01*
X107235238Y-73564761D01*
X107140000Y-73469523D01*
X107092380Y-73279047D01*
X107092380Y-72945714D01*
X107140000Y-72755238D01*
X107235238Y-72660000D01*
X107330476Y-72612380D01*
X108092380Y-72612380D02*
X108711428Y-72612380D01*
X108378095Y-72993333D01*
X108520952Y-72993333D01*
X108616190Y-73040952D01*
X108663809Y-73088571D01*
X108711428Y-73183809D01*
X108711428Y-73421904D01*
X108663809Y-73517142D01*
X108616190Y-73564761D01*
X108520952Y-73612380D01*
X108235238Y-73612380D01*
X108140000Y-73564761D01*
X108092380Y-73517142D01*
X109092380Y-72707619D02*
X109140000Y-72660000D01*
X109235238Y-72612380D01*
X109473333Y-72612380D01*
X109568571Y-72660000D01*
X109616190Y-72707619D01*
X109663809Y-72802857D01*
X109663809Y-72898095D01*
X109616190Y-73040952D01*
X109044761Y-73612380D01*
X109663809Y-73612380D01*
X110523809Y-71072380D02*
X110523809Y-70072380D01*
X111190476Y-70072380D02*
X111380952Y-70072380D01*
X111476190Y-70120000D01*
X111571428Y-70215238D01*
X111619047Y-70405714D01*
X111619047Y-70739047D01*
X111571428Y-70929523D01*
X111476190Y-71024761D01*
X111380952Y-71072380D01*
X111190476Y-71072380D01*
X111095238Y-71024761D01*
X111000000Y-70929523D01*
X110952380Y-70739047D01*
X110952380Y-70405714D01*
X111000000Y-70215238D01*
X111095238Y-70120000D01*
X111190476Y-70072380D01*
X111952380Y-70072380D02*
X112571428Y-70072380D01*
X112238095Y-70453333D01*
X112380952Y-70453333D01*
X112476190Y-70500952D01*
X112523809Y-70548571D01*
X112571428Y-70643809D01*
X112571428Y-70881904D01*
X112523809Y-70977142D01*
X112476190Y-71024761D01*
X112380952Y-71072380D01*
X112095238Y-71072380D01*
X112000000Y-71024761D01*
X111952380Y-70977142D01*
X113476190Y-70072380D02*
X113000000Y-70072380D01*
X112952380Y-70548571D01*
X113000000Y-70500952D01*
X113095238Y-70453333D01*
X113333333Y-70453333D01*
X113428571Y-70500952D01*
X113476190Y-70548571D01*
X113523809Y-70643809D01*
X113523809Y-70881904D01*
X113476190Y-70977142D01*
X113428571Y-71024761D01*
X113333333Y-71072380D01*
X113095238Y-71072380D01*
X113000000Y-71024761D01*
X112952380Y-70977142D01*
X106803809Y-71072380D02*
X106803809Y-70072380D01*
X107470476Y-70072380D02*
X107660952Y-70072380D01*
X107756190Y-70120000D01*
X107851428Y-70215238D01*
X107899047Y-70405714D01*
X107899047Y-70739047D01*
X107851428Y-70929523D01*
X107756190Y-71024761D01*
X107660952Y-71072380D01*
X107470476Y-71072380D01*
X107375238Y-71024761D01*
X107280000Y-70929523D01*
X107232380Y-70739047D01*
X107232380Y-70405714D01*
X107280000Y-70215238D01*
X107375238Y-70120000D01*
X107470476Y-70072380D01*
X108232380Y-70072380D02*
X108851428Y-70072380D01*
X108518095Y-70453333D01*
X108660952Y-70453333D01*
X108756190Y-70500952D01*
X108803809Y-70548571D01*
X108851428Y-70643809D01*
X108851428Y-70881904D01*
X108803809Y-70977142D01*
X108756190Y-71024761D01*
X108660952Y-71072380D01*
X108375238Y-71072380D01*
X108280000Y-71024761D01*
X108232380Y-70977142D01*
X109708571Y-70405714D02*
X109708571Y-71072380D01*
X109470476Y-70024761D02*
X109232380Y-70739047D01*
X109851428Y-70739047D01*
X107206666Y-67532380D02*
X107540000Y-68532380D01*
X107873333Y-67532380D01*
X108206666Y-68532380D02*
X108206666Y-67532380D01*
X108587619Y-67532380D01*
X108682857Y-67580000D01*
X108730476Y-67627619D01*
X108778095Y-67722857D01*
X108778095Y-67865714D01*
X108730476Y-67960952D01*
X108682857Y-68008571D01*
X108587619Y-68056190D01*
X108206666Y-68056190D01*
X111238095Y-65040000D02*
X111142857Y-64992380D01*
X111000000Y-64992380D01*
X110857142Y-65040000D01*
X110761904Y-65135238D01*
X110714285Y-65230476D01*
X110666666Y-65420952D01*
X110666666Y-65563809D01*
X110714285Y-65754285D01*
X110761904Y-65849523D01*
X110857142Y-65944761D01*
X111000000Y-65992380D01*
X111095238Y-65992380D01*
X111238095Y-65944761D01*
X111285714Y-65897142D01*
X111285714Y-65563809D01*
X111095238Y-65563809D01*
X111714285Y-65992380D02*
X111714285Y-64992380D01*
X112285714Y-65992380D01*
X112285714Y-64992380D01*
X112761904Y-65992380D02*
X112761904Y-64992380D01*
X113000000Y-64992380D01*
X113142857Y-65040000D01*
X113238095Y-65135238D01*
X113285714Y-65230476D01*
X113333333Y-65420952D01*
X113333333Y-65563809D01*
X113285714Y-65754285D01*
X113238095Y-65849523D01*
X113142857Y-65944761D01*
X113000000Y-65992380D01*
X112761904Y-65992380D01*
X107241904Y-65468571D02*
X107575238Y-65468571D01*
X107718095Y-65992380D02*
X107241904Y-65992380D01*
X107241904Y-64992380D01*
X107718095Y-64992380D01*
X108146666Y-65992380D02*
X108146666Y-64992380D01*
X108718095Y-65992380D01*
X108718095Y-64992380D01*
X110166666Y-62452380D02*
X110500000Y-63452380D01*
X110833333Y-62452380D01*
X111500000Y-62928571D02*
X111642857Y-62976190D01*
X111690476Y-63023809D01*
X111738095Y-63119047D01*
X111738095Y-63261904D01*
X111690476Y-63357142D01*
X111642857Y-63404761D01*
X111547619Y-63452380D01*
X111166666Y-63452380D01*
X111166666Y-62452380D01*
X111500000Y-62452380D01*
X111595238Y-62500000D01*
X111642857Y-62547619D01*
X111690476Y-62642857D01*
X111690476Y-62738095D01*
X111642857Y-62833333D01*
X111595238Y-62880952D01*
X111500000Y-62928571D01*
X111166666Y-62928571D01*
X112166666Y-62452380D02*
X112166666Y-63261904D01*
X112214285Y-63357142D01*
X112261904Y-63404761D01*
X112357142Y-63452380D01*
X112547619Y-63452380D01*
X112642857Y-63404761D01*
X112690476Y-63357142D01*
X112738095Y-63261904D01*
X112738095Y-62452380D01*
X113166666Y-63404761D02*
X113309523Y-63452380D01*
X113547619Y-63452380D01*
X113642857Y-63404761D01*
X113690476Y-63357142D01*
X113738095Y-63261904D01*
X113738095Y-63166666D01*
X113690476Y-63071428D01*
X113642857Y-63023809D01*
X113547619Y-62976190D01*
X113357142Y-62928571D01*
X113261904Y-62880952D01*
X113214285Y-62833333D01*
X113166666Y-62738095D01*
X113166666Y-62642857D01*
X113214285Y-62547619D01*
X113261904Y-62500000D01*
X113357142Y-62452380D01*
X113595238Y-62452380D01*
X113738095Y-62500000D01*
X106771904Y-62452380D02*
X107390952Y-62452380D01*
X107057619Y-62833333D01*
X107200476Y-62833333D01*
X107295714Y-62880952D01*
X107343333Y-62928571D01*
X107390952Y-63023809D01*
X107390952Y-63261904D01*
X107343333Y-63357142D01*
X107295714Y-63404761D01*
X107200476Y-63452380D01*
X106914761Y-63452380D01*
X106819523Y-63404761D01*
X106771904Y-63357142D01*
X107676666Y-62452380D02*
X108010000Y-63452380D01*
X108343333Y-62452380D01*
X108581428Y-62452380D02*
X109200476Y-62452380D01*
X108867142Y-62833333D01*
X109010000Y-62833333D01*
X109105238Y-62880952D01*
X109152857Y-62928571D01*
X109200476Y-63023809D01*
X109200476Y-63261904D01*
X109152857Y-63357142D01*
X109105238Y-63404761D01*
X109010000Y-63452380D01*
X108724285Y-63452380D01*
X108629047Y-63404761D01*
X108581428Y-63357142D01*
D11*
%TO.C,J3*%
X118370000Y-79360000D02*
X118370000Y-78030000D01*
X119700000Y-79360000D02*
X118370000Y-79360000D01*
X120970000Y-79360000D02*
X120970000Y-76700000D01*
X120970000Y-76700000D02*
X131190000Y-76700000D01*
X120970000Y-79360000D02*
X131190000Y-79360000D01*
X131190000Y-79360000D02*
X131190000Y-76700000D01*
%TO.C,R2*%
X137452379Y-69190000D02*
X137787621Y-69190000D01*
X137452379Y-68430000D02*
X137787621Y-68430000D01*
%TO.C,R1*%
X111027621Y-52870000D02*
X110692379Y-52870000D01*
X111027621Y-53630000D02*
X110692379Y-53630000D01*
%TO.C,C3*%
X111060000Y-93818748D02*
X111060000Y-95241252D01*
X108340000Y-93818748D02*
X108340000Y-95241252D01*
%TO.C,C2*%
X125458748Y-89220000D02*
X126881252Y-89220000D01*
X125458748Y-91940000D02*
X126881252Y-91940000D01*
%TO.C,J2*%
X143990000Y-61670000D02*
X145320000Y-61670000D01*
X143990000Y-63000000D02*
X143990000Y-61670000D01*
X146590000Y-61670000D02*
X149190000Y-61670000D01*
X146590000Y-64270000D02*
X146590000Y-61670000D01*
X143990000Y-64270000D02*
X146590000Y-64270000D01*
X149190000Y-61670000D02*
X149190000Y-87190000D01*
X143990000Y-64270000D02*
X143990000Y-87190000D01*
X143990000Y-87190000D02*
X149190000Y-87190000D01*
%TO.C,J1*%
X100810000Y-61670000D02*
X102140000Y-61670000D01*
X100810000Y-63000000D02*
X100810000Y-61670000D01*
X103410000Y-61670000D02*
X106010000Y-61670000D01*
X103410000Y-64270000D02*
X103410000Y-61670000D01*
X100810000Y-64270000D02*
X103410000Y-64270000D01*
X106010000Y-61670000D02*
X106010000Y-87190000D01*
X100810000Y-64270000D02*
X100810000Y-87190000D01*
X100810000Y-87190000D02*
X106010000Y-87190000D01*
%TO.C,U2*%
X118770000Y-92880000D02*
X117510000Y-92880000D01*
X111950000Y-92880000D02*
X113210000Y-92880000D01*
X118770000Y-96640000D02*
X118770000Y-92880000D01*
X111950000Y-98890000D02*
X111950000Y-92880000D01*
%TO.C,R5*%
X138024724Y-51912500D02*
X137515276Y-51912500D01*
X138024724Y-50867500D02*
X137515276Y-50867500D01*
%TO.C,R4*%
X109182500Y-52455276D02*
X109182500Y-52964724D01*
X108137500Y-52455276D02*
X108137500Y-52964724D01*
%TO.C,D2*%
X141105000Y-53130000D02*
X141105000Y-50645000D01*
X141105000Y-50645000D02*
X139735000Y-50645000D01*
X139735000Y-50645000D02*
X139735000Y-53130000D01*
%TO.C,D1*%
X112287500Y-51035000D02*
X109802500Y-51035000D01*
X109802500Y-51035000D02*
X109802500Y-52405000D01*
X109802500Y-52405000D02*
X112287500Y-52405000D01*
%TO.C,R3*%
X132045276Y-96307500D02*
X132554724Y-96307500D01*
X132045276Y-97352500D02*
X132554724Y-97352500D01*
D12*
%TO.C,P1*%
X120682000Y-99031058D02*
X120682000Y-100688942D01*
X120682000Y-100688942D02*
X129318000Y-100688942D01*
X129318000Y-100688942D02*
X129318000Y-99031058D01*
X129318000Y-96768807D02*
X129318000Y-95231117D01*
X120682000Y-95231117D02*
X120682000Y-96768807D01*
X121570873Y-93449942D02*
X121366911Y-93449942D01*
X128633089Y-93449942D02*
X128420186Y-93449942D01*
D11*
%TO.C,C1*%
X132163733Y-94710000D02*
X132456267Y-94710000D01*
X132163733Y-95730000D02*
X132456267Y-95730000D01*
D12*
%TO.C,SW2*%
X115144274Y-87459992D02*
X116844296Y-87459992D01*
X114050042Y-87449832D02*
X114050042Y-84549914D01*
X117949958Y-87449832D02*
X114050042Y-87449832D01*
X117949958Y-84549914D02*
X117949958Y-87449832D01*
X114050042Y-84549914D02*
X117949958Y-84549914D01*
%TO.C,SW1*%
X134855726Y-84540008D02*
X133155704Y-84540008D01*
X135949958Y-84550168D02*
X135949958Y-87450086D01*
X132050042Y-84550168D02*
X135949958Y-84550168D01*
X132050042Y-87450086D02*
X132050042Y-84550168D01*
X135949958Y-87450086D02*
X132050042Y-87450086D01*
%TO.C,U1*%
X131350000Y-45395000D02*
X132620000Y-45395000D01*
X132620000Y-45395000D02*
X132620000Y-49205000D01*
X130080000Y-45395000D02*
X130080000Y-49205000D01*
X117380000Y-47935000D02*
X117380000Y-45395000D01*
X117380000Y-45395000D02*
X119920000Y-45395000D01*
X119920000Y-45395000D02*
X119920000Y-47935000D01*
X119920000Y-47935000D02*
X122460000Y-47935000D01*
X122460000Y-47935000D02*
X122460000Y-45395000D01*
X122460000Y-45395000D02*
X125000000Y-45395000D01*
X125000000Y-45395000D02*
X125000000Y-47935000D01*
X125000000Y-47935000D02*
X127540000Y-47935000D01*
X127540000Y-47935000D02*
X127540000Y-45395000D01*
X127540000Y-45395000D02*
X131350000Y-45395000D01*
X116019932Y-49974976D02*
X133999931Y-50055036D01*
X116000018Y-43755080D02*
X133999982Y-43755080D01*
X133999982Y-43755080D02*
X133999982Y-69255156D01*
X133999982Y-69255156D02*
X116000018Y-69255156D01*
X116000018Y-69255156D02*
X116000018Y-43755080D01*
%TO.C,J3*%
D10*
X116822380Y-78363333D02*
X117536666Y-78363333D01*
X117679523Y-78410952D01*
X117774761Y-78506190D01*
X117822380Y-78649047D01*
X117822380Y-78744285D01*
X116822380Y-77982380D02*
X116822380Y-77363333D01*
X117203333Y-77696666D01*
X117203333Y-77553809D01*
X117250952Y-77458571D01*
X117298571Y-77410952D01*
X117393809Y-77363333D01*
X117631904Y-77363333D01*
X117727142Y-77410952D01*
X117774761Y-77458571D01*
X117822380Y-77553809D01*
X117822380Y-77839523D01*
X117774761Y-77934761D01*
X117727142Y-77982380D01*
%TO.C,R2*%
X135113333Y-69222380D02*
X134780000Y-68746190D01*
X134541904Y-69222380D02*
X134541904Y-68222380D01*
X134922857Y-68222380D01*
X135018095Y-68270000D01*
X135065714Y-68317619D01*
X135113333Y-68412857D01*
X135113333Y-68555714D01*
X135065714Y-68650952D01*
X135018095Y-68698571D01*
X134922857Y-68746190D01*
X134541904Y-68746190D01*
X135494285Y-68317619D02*
X135541904Y-68270000D01*
X135637142Y-68222380D01*
X135875238Y-68222380D01*
X135970476Y-68270000D01*
X136018095Y-68317619D01*
X136065714Y-68412857D01*
X136065714Y-68508095D01*
X136018095Y-68650952D01*
X135446666Y-69222380D01*
X136065714Y-69222380D01*
%TO.C,R1*%
X112863333Y-53792380D02*
X112530000Y-53316190D01*
X112291904Y-53792380D02*
X112291904Y-52792380D01*
X112672857Y-52792380D01*
X112768095Y-52840000D01*
X112815714Y-52887619D01*
X112863333Y-52982857D01*
X112863333Y-53125714D01*
X112815714Y-53220952D01*
X112768095Y-53268571D01*
X112672857Y-53316190D01*
X112291904Y-53316190D01*
X113815714Y-53792380D02*
X113244285Y-53792380D01*
X113530000Y-53792380D02*
X113530000Y-52792380D01*
X113434761Y-52935238D01*
X113339523Y-53030476D01*
X113244285Y-53078095D01*
%TO.C,C3*%
X109423333Y-94987142D02*
X109375714Y-95034761D01*
X109232857Y-95082380D01*
X109137619Y-95082380D01*
X108994761Y-95034761D01*
X108899523Y-94939523D01*
X108851904Y-94844285D01*
X108804285Y-94653809D01*
X108804285Y-94510952D01*
X108851904Y-94320476D01*
X108899523Y-94225238D01*
X108994761Y-94130000D01*
X109137619Y-94082380D01*
X109232857Y-94082380D01*
X109375714Y-94130000D01*
X109423333Y-94177619D01*
X109756666Y-94082380D02*
X110375714Y-94082380D01*
X110042380Y-94463333D01*
X110185238Y-94463333D01*
X110280476Y-94510952D01*
X110328095Y-94558571D01*
X110375714Y-94653809D01*
X110375714Y-94891904D01*
X110328095Y-94987142D01*
X110280476Y-95034761D01*
X110185238Y-95082380D01*
X109899523Y-95082380D01*
X109804285Y-95034761D01*
X109756666Y-94987142D01*
%TO.C,C2*%
X126527142Y-90836666D02*
X126574761Y-90884285D01*
X126622380Y-91027142D01*
X126622380Y-91122380D01*
X126574761Y-91265238D01*
X126479523Y-91360476D01*
X126384285Y-91408095D01*
X126193809Y-91455714D01*
X126050952Y-91455714D01*
X125860476Y-91408095D01*
X125765238Y-91360476D01*
X125670000Y-91265238D01*
X125622380Y-91122380D01*
X125622380Y-91027142D01*
X125670000Y-90884285D01*
X125717619Y-90836666D01*
X125717619Y-90455714D02*
X125670000Y-90408095D01*
X125622380Y-90312857D01*
X125622380Y-90074761D01*
X125670000Y-89979523D01*
X125717619Y-89931904D01*
X125812857Y-89884285D01*
X125908095Y-89884285D01*
X126050952Y-89931904D01*
X126622380Y-90503333D01*
X126622380Y-89884285D01*
%TO.C,J2*%
X146256666Y-60122380D02*
X146256666Y-60836666D01*
X146209047Y-60979523D01*
X146113809Y-61074761D01*
X145970952Y-61122380D01*
X145875714Y-61122380D01*
X146685238Y-60217619D02*
X146732857Y-60170000D01*
X146828095Y-60122380D01*
X147066190Y-60122380D01*
X147161428Y-60170000D01*
X147209047Y-60217619D01*
X147256666Y-60312857D01*
X147256666Y-60408095D01*
X147209047Y-60550952D01*
X146637619Y-61122380D01*
X147256666Y-61122380D01*
%TO.C,J1*%
X103076666Y-60122380D02*
X103076666Y-60836666D01*
X103029047Y-60979523D01*
X102933809Y-61074761D01*
X102790952Y-61122380D01*
X102695714Y-61122380D01*
X104076666Y-61122380D02*
X103505238Y-61122380D01*
X103790952Y-61122380D02*
X103790952Y-60122380D01*
X103695714Y-60265238D01*
X103600476Y-60360476D01*
X103505238Y-60408095D01*
%TO.C,H4*%
X146588095Y-102652380D02*
X146588095Y-101652380D01*
X146588095Y-102128571D02*
X147159523Y-102128571D01*
X147159523Y-102652380D02*
X147159523Y-101652380D01*
X148064285Y-101985714D02*
X148064285Y-102652380D01*
X147826190Y-101604761D02*
X147588095Y-102319047D01*
X148207142Y-102319047D01*
%TO.C,H3*%
X102118095Y-102102380D02*
X102118095Y-101102380D01*
X102118095Y-101578571D02*
X102689523Y-101578571D01*
X102689523Y-102102380D02*
X102689523Y-101102380D01*
X103070476Y-101102380D02*
X103689523Y-101102380D01*
X103356190Y-101483333D01*
X103499047Y-101483333D01*
X103594285Y-101530952D01*
X103641904Y-101578571D01*
X103689523Y-101673809D01*
X103689523Y-101911904D01*
X103641904Y-102007142D01*
X103594285Y-102054761D01*
X103499047Y-102102380D01*
X103213333Y-102102380D01*
X103118095Y-102054761D01*
X103070476Y-102007142D01*
%TO.C,H2*%
X146398095Y-48572380D02*
X146398095Y-47572380D01*
X146398095Y-48048571D02*
X146969523Y-48048571D01*
X146969523Y-48572380D02*
X146969523Y-47572380D01*
X147398095Y-47667619D02*
X147445714Y-47620000D01*
X147540952Y-47572380D01*
X147779047Y-47572380D01*
X147874285Y-47620000D01*
X147921904Y-47667619D01*
X147969523Y-47762857D01*
X147969523Y-47858095D01*
X147921904Y-48000952D01*
X147350476Y-48572380D01*
X147969523Y-48572380D01*
%TO.C,H1*%
X102308095Y-48662380D02*
X102308095Y-47662380D01*
X102308095Y-48138571D02*
X102879523Y-48138571D01*
X102879523Y-48662380D02*
X102879523Y-47662380D01*
X103879523Y-48662380D02*
X103308095Y-48662380D01*
X103593809Y-48662380D02*
X103593809Y-47662380D01*
X103498571Y-47805238D01*
X103403333Y-47900476D01*
X103308095Y-47948095D01*
%TO.C,U2*%
X114752380Y-95441904D02*
X115561904Y-95441904D01*
X115657142Y-95394285D01*
X115704761Y-95346666D01*
X115752380Y-95251428D01*
X115752380Y-95060952D01*
X115704761Y-94965714D01*
X115657142Y-94918095D01*
X115561904Y-94870476D01*
X114752380Y-94870476D01*
X114847619Y-94441904D02*
X114800000Y-94394285D01*
X114752380Y-94299047D01*
X114752380Y-94060952D01*
X114800000Y-93965714D01*
X114847619Y-93918095D01*
X114942857Y-93870476D01*
X115038095Y-93870476D01*
X115180952Y-93918095D01*
X115752380Y-94489523D01*
X115752380Y-93870476D01*
%TO.C,R5*%
X137653333Y-53532380D02*
X137320000Y-53056190D01*
X137081904Y-53532380D02*
X137081904Y-52532380D01*
X137462857Y-52532380D01*
X137558095Y-52580000D01*
X137605714Y-52627619D01*
X137653333Y-52722857D01*
X137653333Y-52865714D01*
X137605714Y-52960952D01*
X137558095Y-53008571D01*
X137462857Y-53056190D01*
X137081904Y-53056190D01*
X138558095Y-52532380D02*
X138081904Y-52532380D01*
X138034285Y-53008571D01*
X138081904Y-52960952D01*
X138177142Y-52913333D01*
X138415238Y-52913333D01*
X138510476Y-52960952D01*
X138558095Y-53008571D01*
X138605714Y-53103809D01*
X138605714Y-53341904D01*
X138558095Y-53437142D01*
X138510476Y-53484761D01*
X138415238Y-53532380D01*
X138177142Y-53532380D01*
X138081904Y-53484761D01*
X138034285Y-53437142D01*
%TO.C,R4*%
X107742380Y-53096666D02*
X107266190Y-53430000D01*
X107742380Y-53668095D02*
X106742380Y-53668095D01*
X106742380Y-53287142D01*
X106790000Y-53191904D01*
X106837619Y-53144285D01*
X106932857Y-53096666D01*
X107075714Y-53096666D01*
X107170952Y-53144285D01*
X107218571Y-53191904D01*
X107266190Y-53287142D01*
X107266190Y-53668095D01*
X107075714Y-52239523D02*
X107742380Y-52239523D01*
X106694761Y-52477619D02*
X107409047Y-52715714D01*
X107409047Y-52096666D01*
%TO.C,D2*%
X141541904Y-51722380D02*
X141541904Y-50722380D01*
X141780000Y-50722380D01*
X141922857Y-50770000D01*
X142018095Y-50865238D01*
X142065714Y-50960476D01*
X142113333Y-51150952D01*
X142113333Y-51293809D01*
X142065714Y-51484285D01*
X142018095Y-51579523D01*
X141922857Y-51674761D01*
X141780000Y-51722380D01*
X141541904Y-51722380D01*
X142494285Y-50817619D02*
X142541904Y-50770000D01*
X142637142Y-50722380D01*
X142875238Y-50722380D01*
X142970476Y-50770000D01*
X143018095Y-50817619D01*
X143065714Y-50912857D01*
X143065714Y-51008095D01*
X143018095Y-51150952D01*
X142446666Y-51722380D01*
X143065714Y-51722380D01*
%TO.C,D1*%
X113391904Y-52072380D02*
X113391904Y-51072380D01*
X113630000Y-51072380D01*
X113772857Y-51120000D01*
X113868095Y-51215238D01*
X113915714Y-51310476D01*
X113963333Y-51500952D01*
X113963333Y-51643809D01*
X113915714Y-51834285D01*
X113868095Y-51929523D01*
X113772857Y-52024761D01*
X113630000Y-52072380D01*
X113391904Y-52072380D01*
X114915714Y-52072380D02*
X114344285Y-52072380D01*
X114630000Y-52072380D02*
X114630000Y-51072380D01*
X114534761Y-51215238D01*
X114439523Y-51310476D01*
X114344285Y-51358095D01*
%TO.C,R3*%
X134823333Y-97372380D02*
X134490000Y-96896190D01*
X134251904Y-97372380D02*
X134251904Y-96372380D01*
X134632857Y-96372380D01*
X134728095Y-96420000D01*
X134775714Y-96467619D01*
X134823333Y-96562857D01*
X134823333Y-96705714D01*
X134775714Y-96800952D01*
X134728095Y-96848571D01*
X134632857Y-96896190D01*
X134251904Y-96896190D01*
X135156666Y-96372380D02*
X135775714Y-96372380D01*
X135442380Y-96753333D01*
X135585238Y-96753333D01*
X135680476Y-96800952D01*
X135728095Y-96848571D01*
X135775714Y-96943809D01*
X135775714Y-97181904D01*
X135728095Y-97277142D01*
X135680476Y-97324761D01*
X135585238Y-97372380D01*
X135299523Y-97372380D01*
X135204285Y-97324761D01*
X135156666Y-97277142D01*
%TO.C,P1*%
X124531904Y-97182380D02*
X124531904Y-96182380D01*
X124912857Y-96182380D01*
X125008095Y-96230000D01*
X125055714Y-96277619D01*
X125103333Y-96372857D01*
X125103333Y-96515714D01*
X125055714Y-96610952D01*
X125008095Y-96658571D01*
X124912857Y-96706190D01*
X124531904Y-96706190D01*
X126055714Y-97182380D02*
X125484285Y-97182380D01*
X125770000Y-97182380D02*
X125770000Y-96182380D01*
X125674761Y-96325238D01*
X125579523Y-96420476D01*
X125484285Y-96468095D01*
%TO.C,C1*%
X134873333Y-95637142D02*
X134825714Y-95684761D01*
X134682857Y-95732380D01*
X134587619Y-95732380D01*
X134444761Y-95684761D01*
X134349523Y-95589523D01*
X134301904Y-95494285D01*
X134254285Y-95303809D01*
X134254285Y-95160952D01*
X134301904Y-94970476D01*
X134349523Y-94875238D01*
X134444761Y-94780000D01*
X134587619Y-94732380D01*
X134682857Y-94732380D01*
X134825714Y-94780000D01*
X134873333Y-94827619D01*
X135825714Y-95732380D02*
X135254285Y-95732380D01*
X135540000Y-95732380D02*
X135540000Y-94732380D01*
X135444761Y-94875238D01*
X135349523Y-94970476D01*
X135254285Y-95018095D01*
%TO.C,SW2*%
D13*
X114656774Y-86502642D02*
X114820060Y-86557071D01*
X115092202Y-86557071D01*
X115201060Y-86502642D01*
X115255488Y-86448214D01*
X115309917Y-86339357D01*
X115309917Y-86230500D01*
X115255488Y-86121642D01*
X115201060Y-86067214D01*
X115092202Y-86012785D01*
X114874488Y-85958357D01*
X114765631Y-85903928D01*
X114711202Y-85849500D01*
X114656774Y-85740642D01*
X114656774Y-85631785D01*
X114711202Y-85522928D01*
X114765631Y-85468500D01*
X114874488Y-85414071D01*
X115146631Y-85414071D01*
X115309917Y-85468500D01*
X115690917Y-85414071D02*
X115963060Y-86557071D01*
X116180774Y-85740642D01*
X116398488Y-86557071D01*
X116670631Y-85414071D01*
X117051631Y-85522928D02*
X117106060Y-85468500D01*
X117214917Y-85414071D01*
X117487060Y-85414071D01*
X117595917Y-85468500D01*
X117650345Y-85522928D01*
X117704774Y-85631785D01*
X117704774Y-85740642D01*
X117650345Y-85903928D01*
X116997202Y-86557071D01*
X117704774Y-86557071D01*
%TO.C,SW1*%
X132295225Y-86462642D02*
X132458511Y-86517071D01*
X132730654Y-86517071D01*
X132839511Y-86462642D01*
X132893940Y-86408214D01*
X132948368Y-86299357D01*
X132948368Y-86190500D01*
X132893940Y-86081642D01*
X132839511Y-86027214D01*
X132730654Y-85972785D01*
X132512940Y-85918357D01*
X132404082Y-85863928D01*
X132349654Y-85809500D01*
X132295225Y-85700642D01*
X132295225Y-85591785D01*
X132349654Y-85482928D01*
X132404082Y-85428500D01*
X132512940Y-85374071D01*
X132785082Y-85374071D01*
X132948368Y-85428500D01*
X133329368Y-85374071D02*
X133601511Y-86517071D01*
X133819225Y-85700642D01*
X134036940Y-86517071D01*
X134309082Y-85374071D01*
X135343225Y-86517071D02*
X134690082Y-86517071D01*
X135016654Y-86517071D02*
X135016654Y-85374071D01*
X134907797Y-85537357D01*
X134798940Y-85646214D01*
X134690082Y-85700642D01*
%TO.C,U1*%
D10*
X124238095Y-69452380D02*
X124238095Y-70261904D01*
X124285714Y-70357142D01*
X124333333Y-70404761D01*
X124428571Y-70452380D01*
X124619047Y-70452380D01*
X124714285Y-70404761D01*
X124761904Y-70357142D01*
X124809523Y-70261904D01*
X124809523Y-69452380D01*
X125809523Y-70452380D02*
X125238095Y-70452380D01*
X125523809Y-70452380D02*
X125523809Y-69452380D01*
X125428571Y-69595238D01*
X125333333Y-69690476D01*
X125238095Y-69738095D01*
D14*
X128340366Y-60712633D02*
X130372366Y-60228823D01*
X128920937Y-59841776D01*
X130372366Y-59454728D01*
X128340366Y-58970919D01*
X130372366Y-58196823D02*
X128340366Y-58196823D01*
X129307985Y-56551871D02*
X129307985Y-57229204D01*
X130372366Y-57229204D02*
X128340366Y-57229204D01*
X128340366Y-56261585D01*
X130372366Y-55487490D02*
X128340366Y-55487490D01*
%TD*%
M02*
